<?xml version="1.0" encoding="UTF-8"?>
<svg xmlns="http://www.w3.org/2000/svg" xmlns:xlink="http://www.w3.org/1999/xlink" width="200pt" height="200pt" viewBox="0 0 200 200" version="1.1">
<g id="surface1">
<path style=" stroke:none;fill-rule:evenodd;fill:rgb(3.137255%,5.490196%,6.27451%);fill-opacity:1;" d="M 0 199.980469 L 199.980469 199.980469 L 199.980469 0 L 0 0 L 0 199.980469 "/>
<path style=" stroke:none;fill-rule:evenodd;fill:rgb(100%,100%,100%);fill-opacity:1;" d="M 138.914062 76.839844 L 138.914062 116.527344 C 138.914062 138.914062 120.476562 151.789062 99.40625 151.789062 C 78.335938 151.789062 61.070312 138.914062 61.070312 116.527344 L 61.070312 103.210938 L 85.796875 103.210938 L 85.796875 116.085938 C 85.796875 124.132812 91.796875 128.378906 99.40625 128.378906 C 107.015625 128.378906 112.136719 124.28125 112.136719 116.085938 L 112.136719 76.839844 Z M 138.914062 71.503906 L 112.136719 71.503906 L 112.136719 71.480469 L 94.933594 71.472656 L 81.492188 48.191406 L 138.914062 48.191406 L 138.914062 71.503906 "/>
</g>
</svg>
