<?xml version="1.0" encoding="UTF-8"?>
<svg xmlns="http://www.w3.org/2000/svg" xmlns:xlink="http://www.w3.org/1999/xlink" width="100pt" height="100pt" viewBox="0 0 100 100" version="1.1">
<g id="surface1">
<path style=" stroke:none;fill-rule:evenodd;fill:rgb(3.137255%,5.490196%,6.27451%);fill-opacity:1;" d="M 0 99.992188 L 99.992188 99.992188 L 99.992188 0 L 0 0 L 0 99.992188 "/>
<path style=" stroke:none;fill-rule:evenodd;fill:rgb(100%,100%,100%);fill-opacity:1;" d="M 69.457031 38.421875 L 69.457031 58.261719 C 69.457031 69.457031 60.238281 75.894531 49.703125 75.894531 C 39.167969 75.894531 30.535156 69.457031 30.535156 58.261719 L 30.535156 51.605469 L 42.898438 51.605469 L 42.898438 58.042969 C 42.898438 62.066406 45.898438 64.1875 49.703125 64.1875 C 53.507812 64.1875 56.066406 62.140625 56.066406 58.042969 L 56.066406 38.421875 Z M 69.457031 35.75 L 56.066406 35.75 L 56.066406 35.738281 L 47.464844 35.734375 L 40.746094 24.097656 L 69.457031 24.097656 L 69.457031 35.75 "/>
</g>
</svg>
